<svg width="20" height="20" viewBox="0 0 20 20" fill="none" xmlns="http://www.w3.org/2000/svg">
  <path d="M10 20C15.5228 20 20 15.5228 20 10C20 4.47715 15.5228 0 10 0C4.47715 0 0 4.47715 0 10C0 15.5228 4.47715 20 10 20Z" fill="white"/>
  <path d="M14.8438 5.9375L10 3.75L5.15625 5.9375L10 8.125L14.8438 5.9375Z" fill="#0098EA"/>
  <path d="M5.15625 5.9375V10.4688L10 12.7083V8.125L5.15625 5.9375Z" fill="#0098EA"/>
  <path d="M10 8.125V12.7083L14.8438 10.4688V5.9375L10 8.125Z" fill="#0098EA"/>
  <path d="M10 13.4375L5.15625 11.1979V13.4375L10 15.6771V13.4375Z" fill="#0098EA"/>
  <path d="M10 13.4375L14.8438 11.1979V13.4375L10 15.6771V13.4375Z" fill="#0098EA"/>
</svg> 